# xmcd
#
# Track frame offsets:
#	150
#	15030
#	27286
#	39414
#	52767
#	69970
#	86385
#	102631
#	119914
#	137660
#	153985
#	168981
#	185251
#	197899
#	211582
#	230113
#	243689
#	258262
#	275154
#	295258
#
# Disc length: 4199 seconds
#
# Revision: 0
# Processed by: cddbd v1.5.2PL0 Copyright (c) Steve Scherf et al.
# Submitted via: dBpowerAMP V4.0
#
DISCID=17106514
DTITLE=Various Artist - Love Universal
DYEAR=2004
DGENRE=various
TTITLE0=Robin Beck - First Time
TTITLE1=Patsy Cline - Crazy
TTITLE2=Brian Hyland - Sealed with a kiss
TTITLE3=The Troggs - Love is all around
TTITLE4=Joe Cocker feat. Jennifer Warnes - Up where we belong
TTITLE5=Boyzone - Love me for a reason
TTITLE6=The Righteous Brothers - Unchained melody
TTITLE7=Capt. and Tennille - Do that to me one more time
TTITLE8=Kool and the gang - Cherish
TTITLE9=Syreeta and Billy Preston - With you I am born again
TTITLE10=The Stylistics - I'm stone in love with you
TTITLE11=Commodores - Three times a lady
TTITLE12=Mary Wells - My guy
TTITLE13=Diana Ross and Marvin Gaye - You are everything
TTITLE14=Jeffrey Osborne - On the wings of love
TTITLE15=The Mammas and The Pappas - Dedicated to the one I love
TTITLE16=Mama Cass - Dream a little dream
TTITLE17=Level 42 - Something about you
TTITLE18=Lionel Richie and Diana Ross - Endless love
TTITLE19=Joan Armatrading - Love and affection
EXTD=Universal records 2004
EXTT0=
EXTT1=
EXTT2=
EXTT3=
EXTT4=
EXTT5=
EXTT6=
EXTT7=
EXTT8=
EXTT9=
EXTT10=
EXTT11=
EXTT12=
EXTT13=
EXTT14=
EXTT15=
EXTT16=
EXTT17=
EXTT18=
EXTT19=
PLAYORDER=
